<svg xmlns="http://www.w3.org/2000/svg" width="200" height="185.68" class="icon" version="1.1" viewBox="0 0 1103 1024"><path fill="#00FFCB" d="M682.273079 310.141638a19.965775 19.965775 0 0 1-17.756447-28.966739L801.413113 12.046072a19.965775 19.965775 0 1 1 35.512895 18.083755L700.029526 299.258654a19.965775 19.965775 0 0 1-17.756447 10.882984z"/><path fill="#00FFCB" d="M698.474814 317.751544a19.965775 19.965775 0 0 1-13.174138-34.858279L911.552183 82.990035a19.965775 19.965775 0 0 1 26.430104 29.866835L711.894434 312.678273a19.883948 19.883948 0 0 1-13.41962 5.073271z"/><path fill="#864BFF" d="M558.223428 1023.999918A557.814294 557.814294 0 0 1 0.900096 435.746001a62.024825 62.024825 0 0 1 0.736443-6.791637 57.278862 57.278862 0 0 1 35.922029-44.022897 61.697518 61.697518 0 0 1 59.897325 8.182694c39.686069 30.521451 162.91745 105.965896 448.738974 146.879369s427.627622 3.109424 474.596289-15.137985a61.042902 61.042902 0 0 1 59.324536 9.000964 56.787901 56.787901 0 0 1 22.011449 51.796457 62.106652 62.106652 0 0 1-1.145577 6.70981A557.896121 557.896121 0 0 1 558.223428 1023.999918zM40.913473 435.418693a22.420583 22.420583 0 0 0 0 2.454808 517.882744 517.882744 0 0 0 1021.282118 145.488311 23.157026 23.157026 0 0 0 0.409135-2.454809 16.938178 16.938178 0 0 0-6.873464-15.547119 21.029525 21.029525 0 0 0-20.293082-3.109424c-50.159918 19.311159-198.83948 59.733671-494.889372 17.347312S115.375994 457.348314 73.15329 424.944844a21.602314 21.602314 0 0 0-21.029525-2.863944A17.347313 17.347313 0 0 0 40.913473 435.418693z"/><path fill="#00FFCB" d="M709.194144 882.275647a15.956255 15.956255 0 0 1-5.155097-31.012413 458.2309 458.2309 0 0 0 136.241866-74.626175 15.956255 15.956255 0 0 1 19.802121 24.957219 489.734274 489.734274 0 0 1-145.733792 79.781273 16.365389 16.365389 0 0 1-5.155098 0.900096z"/><path fill="#864BFF" d="M566.48795 915.661041a251.61786 251.61786 0 0 1-119.630996-29.457701 15.956255 15.956255 0 1 1 15.056158-28.148469c68.489154 36.576645 146.552061 28.39395 196.793806 8.182695a15.956255 15.956255 0 1 1 11.701254 29.621354 292.040372 292.040372 0 0 1-103.920222 19.802121zM521.401302 569.942193a19.965775 19.965775 0 0 1-19.802121-20.047602 294.577007 294.577007 0 0 1 2.94577-39.440588 291.794891 291.794891 0 0 1 579.252954 12.84683 19.965775 19.965775 0 0 1-39.686069 3.845867 251.945168 251.945168 0 0 0-500.126296-11.046638 255.463727 255.463727 0 0 0-2.536636 34.121837 19.965775 19.965775 0 0 1-20.047602 19.720294z"/><path fill="#864BFF" d="M532.366113 493.761306h-1.88202a19.965775 19.965775 0 0 1-18.001928-21.684141A224.696795 224.696795 0 0 0 81.826946 364.638384a228.133527 228.133527 0 0 0-9.410098 27.084719 19.965775 19.965775 0 1 1-38.376838-10.637503 267.328634 267.328634 0 0 1 11.046637-31.830682A264.546518 264.546518 0 0 1 552.168234 475.759377a19.965775 19.965775 0 0 1-19.802121 18.001929zM608.547 581.479792h-2.863943A19.965775 19.965775 0 0 1 589.154014 558.731901a209.231502 209.231502 0 0 1 413.635214-4.336828 19.965775 19.965775 0 0 1-39.358761 6.464329 169.381779 169.381779 0 0 0-334.835865 3.518558 19.965775 19.965775 0 0 1-20.047602 17.101832z"/><path fill="#864BFF" d="M676.463366 591.135372a19.965775 19.965775 0 0 1-19.392986-24.548084 141.315136 141.315136 0 0 1 273.711135-2.127501 19.965775 19.965775 0 1 1-38.867799 10.064715 101.465414 101.465414 0 0 0-196.384672 1.472885 19.965775 19.965775 0 0 1-19.065678 15.137985zM436.219451 561.514017a19.965775 19.965775 0 0 1-18.247409-27.902989 146.388407 146.388407 0 0 0 10.801157-37.967703 145.897445 145.897445 0 0 0-285.821524-56.54242 19.965775 19.965775 0 1 1-38.622318-9.737406A185.747168 185.747168 0 1 1 454.548687 549.403629a19.965775 19.965775 0 0 1-18.329236 12.110388z"/><path fill="#864BFF" d="M378.695108 548.58536A19.965775 19.965775 0 0 1 360.038564 522.31891a83.708966 83.708966 0 0 0 3.436732-14.565197 82.727043 82.727043 0 0 0-160.708123-36.822126 19.965775 19.965775 0 0 1-37.967703-12.028561 122.74042 122.74042 0 0 1 238.116414 54.578574 123.558689 123.558689 0 0 1-5.073271 21.520487 19.965775 19.965775 0 0 1-19.147505 13.583273zM692.255967 318.242506a19.883948 19.883948 0 0 1-16.36539-8.182695A169.545433 169.545433 0 0 0 445.547723 271.192011a19.965775 19.965775 0 1 1-22.338756-32.730778 209.395156 209.395156 0 0 1 285.003254 47.786936 19.965775 19.965775 0 0 1-15.956254 31.91251z"/><path fill="#864BFF" d="M617.711618 364.065595a19.883948 19.883948 0 0 1-14.974331-6.791636 82.727043 82.727043 0 0 0-98.928778-19.474813 19.965775 19.965775 0 0 1-17.756447-35.676549 122.74042 122.74042 0 0 1 146.633888 28.803085 19.965775 19.965775 0 0 1-14.974332 32.730779z"/></svg>